<svg class="w-10 h-10" viewBox="0 0 309 174" fill="none" xmlns="http://www.w3.org/2000/svg">
    <path d="M3 171.381C39.069 135.312 87.8396 103.98 139 95.2925C152.912 92.9301 220.6 81.1457 220.6 107.381C220.6 119.947 206.517 117.714 199.089 113.781C184.466 106.04 173.569 98.5994 163.356 84.9814C147.59 63.9613 130.259 30.0361 153.4 8.18139C163.387 -1.25068 182.496 4.11436 191.8 11.0258C200.922 17.802 206.992 26.4982 213.844 35.3814C219.414 42.6013 217.919 41.8686 222.2 33.7814C232.946 13.4831 267.144 -0.776123 273.044 30.9369C276.355 48.7301 270.497 64.1783 265.044 80.5369C262.996 86.6817 259.821 97.3634 255.444 102.226C250.68 107.52 248.099 99.0778 249.755 94.5814C253.874 83.4025 259.436 78.5814 271.444 78.5814C282.305 78.5814 296.714 87.0265 297.4 99.3814C297.781 106.236 299.515 104.559 301.844 99.3814C303.652 95.3646 306.289 82.5322 306.289 86.937C306.289 88.4888 306.203 101.335 304.689 102.226C299.299 105.396 291.979 105.455 286.2 107.381" stroke="currentColor" stroke-width="5" stroke-linecap="round"/>
</svg>